# WaveFront *.obj file (generated by CINEMA 4D)

mtllib ./schelp.mtl

v 58.06854629516602 58.34461975097656 -64.7906494140625
v 61.52433013916016 65.13645935058594 -13.9994421005249
v 66.74303436279297 56.59704971313477 -57.73236083984375
v 75.3206787109375 55.11555862426758 -47.07080459594727
v 82.20182800292969 54.12567520141602 -34.07715225219727
v 85.97476959228516 53.77810668945312 -14.38686561584473
v 81.61415863037109 42.92316436767578 23.28138160705566
v 66.26641082763672 44.18116760253906 71.20883941650391
v 46.79990005493164 46.06475448608398 95.72811126708984
v 26.05829620361328 48.28762817382812 104.66570281982422
v 6.70804405212402 50.51058197021484 96.13291931152344
v -9.24344348907471 52.39352035522461 71.70672607421875
v -19.89007759094238 53.64892196655273 35.29421234130859
v -23.64909172058105 54.08660888671875 -7.50811386108398
v -19.89007759094238 53.64163589477539 -49.34711837768555
v -9.24344348907471 52.38246154785156 -82.22817230224609
v 6.70804405212402 50.50025939941406 -100.42433929443359
v 26.05829620361328 48.28075790405273 -102.66333770751953
v 46.79990005493164 46.06142425537109 -83.69300079345703
v 67.2281494140625 44.17999649047852 -68.30913543701172
v 81.61415863037109 42.92287063598633 -44.22380828857422
v 86.98887634277344 42.48147201538086 -15.3088903427124
v 50.66572952270508 60.09226226806641 -61.29236602783203
v 45.49203109741211 61.5739860534668 -50.44901657104492
v 85.38426208496094 28.90024185180664 35.75077438354492
v 61.25172424316406 28.90175247192383 95.66614532470703
v 31.19496917724609 28.90660858154297 128.86904907226562
v -0.00000000000001 28.9157657623291 140.72306823730469
v -29.39151000976562 28.92562866210938 129.25912475585938
v -54.37589645385742 28.92942428588867 97.41333770751953
v -71.45830535888672 28.9239616394043 49.37365341186523
v -77.54762268066406 28.91340065002441 -9.69034290313721
v -71.45830535888672 28.90467834472656 -69.96331787109375
v -54.37589645385742 28.90074729919434 -117.19722747802734
v -29.39151000976562 28.89991760253906 -140.39854431152344
v 0 28.89987754821777 -136.21086120605469
v 31.19496917724609 28.89988899230957 -112.20710754394531
v 43.09100341796875 62.56428527832031 -33.44600677490234
v 43.6348991394043 62.91239547729492 -12.67064952850342
v 46.95714569091797 62.56522369384766 8.60712051391602
v 52.59868621826172 61.57547760009766 26.85212516784668
v 85.20677185058594 28.89997291564941 -15.00442123413086
v 62.21346282958984 28.89993286132812 -78.660888671875
v 81.97714996337891 28.89995002746582 -45.56060791015625
v 85.90989685058594 54.12580490112305 6.25657939910889
v 82.20378875732422 55.11590194702148 24.67027854919434
v 75.79962158203125 56.59775161743164 37.65032958984375
v 67.95525360107422 58.34577560424805 42.74990463256836
v 59.88039398193359 60.09377670288086 38.93818664550781
v 86.57890319824219 59.92902755737305 -2.7820873260498
v 86.61735534667969 59.72296142578125 -15.01657009124756
v 84.38129425048828 59.92895126342773 -26.68615531921387
v 75.20652008056641 62.43002319335938 10.88986587524414
v 63.49328231811523 64.93070983886719 -1.38902258872986
v 70.80997467041016 62.42934036254883 -36.93265151977539
v 61.20198822021484 64.93015289306641 -26.31210327148438
v 77.39559173583984 65.9935302734375 -2.32844114303589
v 76.28602600097656 67.50861358642578 -14.76132488250732
v 75.14781951904297 65.99319458007812 -26.77829742431641
# 59 vertices

vn 0.64600700139999 0.74067676067352 0.1845885515213
vn 0.78764617443085 0.5731737613678 0.2260205745697
vn 0.83992123603821 0.45065081119537 0.30240073800087
vn 0.30371904373169 0.93099170923233 0.20250715315342
vn 0.52367889881134 0.79472786188126 0.30686816573143
vn 0 0 0
vn 0.22118803858757 0.94662314653397 0.23447921872139
vn 0.04649187251925 0.98742246627808 0.15111388266087
vn -0.03022044897079 0.9935085773468 0.10966947674751
vn 0.98227918148041 0.03770722821355 0.18359145522118
vn 0.98346024751663 -0.14070215821266 0.11405617743731
vn 0.99504810571671 -0.0664923414588 -0.0738781914115
vn 0.99878984689713 0.01004979945719 -0.04814371839166
vn 0.86404991149902 0.2908376455307 0.41089072823524
vn 0.54043000936508 0.67388367652893 0.50380176305771
vn 0.14219072461128 0.90284717082977 0.40576940774918
vn -0.1089484244585 0.95898175239563 0.26169490814209
vn -0.2177656441927 0.96369308233261 0.15451143682003
vn -0.2640919983387 0.96168285608292 0.07363052666187
vn -0.08822933584452 0.99379289150238 0.0677587762475
vn -0.27897551655769 0.96029424667358 0.0027559963055
vn -0.12629941105843 0.99195885658264 0.00813070125878
vn -0.07440760731697 0.98930877447128 0.12542571127415
vn -0.26466909050941 0.96166533231735 -0.07176354527473
vn -0.10038621723652 0.99325239658356 -0.05807096511126
vn -0.20385085046291 0.96403688192368 -0.17052206397057
vn -0.04497288167477 0.9915286898613 -0.12185341864824
vn -0.04673705250025 0.94328951835632 -0.32866480946541
vn 0.04249024391174 0.97850888967514 -0.20177948474884
vn 0.36128383874893 0.7296159863472 -0.58063286542892
vn 0.33880779147148 0.85233467817307 -0.39841550588608
vn 0.61867886781693 0.44816046953201 -0.64528185129166
vn 0.57373553514481 0.66136527061462 -0.48313915729523
vn 0.75509303808212 0.32688909769058 -0.56831157207489
vn 0.66586720943451 0.58702254295349 -0.46046209335327
vn -0.11951413750648 0.99278879165649 0.0093135535717
vn 0.93701899051666 0.11593820154667 -0.32947489619255
vn 0.90430980920792 0.26047736406326 -0.3381941318512
vn 0.95333582162857 0.23307161033154 0.19190749526024
vn 0.99851435422897 0.03545762225986 -0.04137388244271
vn 0.78580963611603 0.43982765078545 0.43480443954468
vn 0.47878041863441 0.66447186470032 0.57380002737045
vn -0.08725488185883 0.98815250396729 -0.12625861167908
vn 0.07564613968134 0.85498660802841 0.51310384273529
vn 0.27813842892647 0.91150695085526 -0.3029753267765
vn -0.2229366004467 0.91158604621887 0.3454130589962
vn -0.35611626505852 0.9120272397995 0.20343922078609
vn -0.40912115573883 0.90760666131973 0.09418091922998
vn -0.42156732082367 0.90679711103439 0.00002230726204
vn -0.39605435729027 0.91327327489853 -0.09525167942047
vn 0.94238752126694 0.01008069049567 -0.33437120914459
vn -0.30976977944374 0.92546421289444 -0.21807938814163
vn -0.0961634516716 0.90511524677277 -0.41414847970009
vn 0.33604735136032 0.70317775011063 -0.62658852338791
vn 0.56070113182068 0.74940675497055 -0.35214164853096
vn 0.60612910985947 0.42325368523598 -0.67339718341827
vn 0.97398340702057 -0.12528163194656 -0.18884068727493
vn 0.98886257410049 -0.11667430400848 -0.09240068495274
vn 0.76058506965637 0.2219372689724 -0.61012643575668
vn 0.99425250291824 -0.10694735497236 0.0049259904772
vn 0.57527244091034 0.8160160779953 -0.05638613924384
vn 0.25202903151512 0.95206940174103 0.17333556711674
vn 0.23052670061588 0.93828666210175 -0.25782865285873
vn -0.11644648015499 0.99316644668579 0.00778591493145
# 64 normals

vt 0.51194095611572 0.55679303407669 0
vt 0.53800076246262 0.56642884016037 0
vt 0.58979320526123 0.55145961046219 0
vt 0.54725641012192 0.52679485082626 0
vt 0.62505435943604 0.52924931049347 0
vt 0.45232737064362 0.49326252937317 0
vt 0.63925504684448 0.50589871406555 0
vt 0.62829083204269 0.4819598197937 0
vt 0.59289461374283 0.46077609062195 0
vt 0.59703385829926 0.58727604150772 0
vt 0.48428720235825 0.57626128196716 0
vt 0.48285892605782 0.60896122455597 0
vt 0.73414868116379 0.51877284049988 0
vt 0.80893474817276 0.45748698711395 0
vt 0.83754748106003 0.39348721504211 0
vt 0.81293481588364 0.3300267457962 0
vt 0.73515957593918 0.27529394626617 0
vt 0.61622929573059 0.23985719680786 0
vt 0.53935092687607 0.44566214084625 0
vt 0.47521620988846 0.23506784439087 0
vt 0.47687977552414 0.44054198265076 0
vt 0.51240772008896 0.49342048168182 0
vt 0.34005677700043 0.26079523563385 0
vt 0.41599822044373 0.4465297460556 0
vt 0.23861925303936 0.31150817871094 0
vt 0.36749225854874 0.46161162853241 0
vt 0.18939527869225 0.37371981143951 0
vt 0.3382296860218 0.48261272907257 0
vt 0.19217269122601 0.4367481470108 0
vt 0.331751704216 0.50659787654877 0
vt 0.23664733767509 0.49790644645691 0
vt 0.34685346484184 0.53083574771881 0
vt 0.29422551393509 0.55528658628464 0
vt 0.38107511401176 0.55292344093323 0
vt 0.47837352752686 0.49080491065979 0
vt 0.37259352207184 0.59353399276733 0
vt 0.43096259236336 0.56832456588745 0
vt 0.64484411478043 0.62183076143265 0
vt 0.48494562506676 0.65429449081421 0
vt 0.8280308842659 0.52630233764648 0
vt 0.93480205535889 0.42373299598694 0
vt 0.4450775384903 0.49457669258118 0
vt 0.97819554805756 0.31596171855927 0
vt 0.42006370425224 0.52792316675186 0
vt 0.94547098875046 0.21015977859497 0
vt 0.5450325012207 0.48577070236206 0
vt 0.83960086107254 0.11309432983398 0
vt 0.66860967874527 0.04513275623322 0
vt 0.45210540294647 0.03048658370972 0
vt 0.23648887872696 0.08051681518555 0
vt 0.33032596111298 0.6309996843338 0
vt 0.08166228234768 0.17351531982422 0
vt 0.01875228248537 0.27627813816071 0
vt 0.0404588393867 0.37800347805023 0
vt 0.45422378182411 0.5573410987854 0
vt 0.11793752014637 0.47970366477966 0
vt 0.48267969489098 0.55997538566589 0
vt 0.21380610764027 0.57262325286865 0
vt 0.50991028547287 0.52926951646805 0
vt 0.48056218028069 0.52877515554428 0
vt 0.4521489739418 0.52930533885956 0
vt 0.47943499684334 0.48949956893921 0
vt 0.52155959606171 0.48644495010376 0
# 63 texture coordinates

o Sphere
usemtl Mat
f 53/4/4 46/3/3 45/2/2 50/1/1
f 53/4/4 47/5/5 46/3/3
f 53/4/4 48/7/7 47/5/5
f 53/4/4 49/8/8 48/7/7
f 53/4/4 41/9/9 49/8/8
f 22/12/13 6/11/12 45/2/11 7/10/10
f 7/10/10 45/2/11 46/3/3 8/13/14
f 8/13/14 46/3/3 47/5/5 9/14/15
f 9/14/15 47/5/5 48/7/7 10/15/16
f 10/15/16 48/7/7 49/8/8 11/16/17
f 11/16/17 49/8/8 41/9/9 12/17/18
f 12/17/18 41/9/9 40/19/20 13/18/19
f 13/18/19 40/19/20 39/21/22 14/20/21
f 54/22/23 40/19/20 41/9/9 53/4/4
f 14/20/21 39/21/22 38/24/25 15/23/24
f 15/23/24 38/24/25 24/26/27 16/25/26
f 16/25/26 24/26/27 23/28/29 17/27/28
f 17/27/28 23/28/29 1/30/31 18/29/30
f 18/29/30 1/30/31 3/32/33 19/31/32
f 19/31/32 3/32/33 4/34/35 20/33/34
f 2/35/36 39/21/22 40/19/20 54/22/23
f 20/33/34 4/34/35 5/37/38 21/36/37
f 21/36/37 5/37/38 6/11/12 22/12/13
f 42/39/40 22/12/13 7/10/10 25/38/39
f 25/38/39 7/10/10 8/13/14 26/40/41
f 26/40/41 8/13/14 9/14/15 27/41/42
f 56/42/43 38/24/25 39/21/22 2/35/36
f 27/41/42 9/14/15 10/15/16 28/43/44
f 55/44/45 24/26/27 38/24/25 56/42/43
f 28/43/44 10/15/16 11/16/17 29/45/46
f 55/44/45 23/28/29 24/26/27
f 29/45/46 11/16/17 12/17/18 30/47/47
f 30/47/47 12/17/18 13/18/19 31/48/48
f 31/48/48 13/18/19 14/20/21 32/49/49
f 32/49/49 14/20/21 15/23/24 33/50/50
f 55/44/45 1/30/31 23/28/29
f 55/44/45 3/32/33 1/30/31
f 44/51/51 21/36/37 22/12/13 42/39/40
f 55/44/45 4/34/35 3/32/33
f 33/50/50 15/23/24 16/25/26 34/52/52
f 34/52/52 16/25/26 17/27/28 35/53/53
f 35/53/53 17/27/28 18/29/30 36/54/54
f 52/55/55 5/37/38 4/34/35 55/44/45
f 36/54/54 18/29/30 19/31/32 37/56/56
f 51/57/58 6/11/12 5/37/38 52/55/57
f 37/56/56 19/31/32 20/33/34 43/58/59
f 50/1/60 45/2/11 6/11/12 51/57/58
f 43/58/59 20/33/34 21/36/37 44/51/51
f 58/60/61 57/59/62 50/1/1 51/57/61
f 59/61/63 58/60/61 51/57/61 52/55/55
f 57/59/62 53/4/4 50/1/1
f 55/44/45 56/42/43 59/61/63
f 58/60/64 2/35/36 54/22/23 57/59/62
f 59/61/63 56/42/43 2/35/36 58/60/64
f 57/59/62 54/22/23 53/4/4
f 59/61/63 52/55/55 55/44/45

