# This file uses centimeters as units for non-parametric coordinates.

mtllib Spear_Point.mtl
g default
v -18.031520 993.798950 6.400121
v -9.015757 993.798950 6.400121
v 0.000005 993.798950 6.400121
v 9.015768 993.798950 6.400121
v 18.031531 993.798950 6.400121
v -31.511895 1013.398673 8.370944
v -15.755945 1013.398673 8.370944
v 0.000005 1013.398673 8.370944
v 15.755955 1013.398673 8.370944
v 31.511905 1013.398673 8.370944
v -36.840613 1022.512220 6.900722
v -18.420304 1022.512220 6.900722
v 0.000005 1022.512220 6.900722
v 18.420314 1022.512220 6.900722
v 36.840624 1022.512220 6.900722
v -39.521148 1033.492831 6.900722
v -19.760572 1033.492831 6.900722
v 0.000005 1033.492831 6.900722
v 19.760582 1033.492831 6.900722
v 39.521159 1033.492831 6.900722
v -42.155891 1047.346335 6.900722
v -21.077943 1047.346335 6.900722
v 0.000005 1047.346335 6.900722
v 21.077954 1047.346335 6.900722
v 42.155902 1047.346335 6.900722
v -44.351516 1066.945840 6.900722
v -22.175755 1066.945840 6.900722
v 0.000005 1066.945840 6.900722
v 22.175766 1066.945840 6.900722
v 44.351526 1066.945840 6.900722
v -5.673761 1224.369824 4.412270
v -2.836878 1224.369824 4.412270
v 0.000005 1224.369824 4.412270
v 2.836888 1224.369824 4.412270
v 5.673771 1224.369824 4.412270
v -7.015166 1231.664357 2.057565
v -3.507580 1235.114307 1.579211
v 0.000005 1238.366613 0.986905
v 3.507591 1235.114307 1.579211
v 7.015177 1231.664357 2.057565
v -7.015166 1231.664357 -1.032704
v -3.507580 1235.114307 -0.554350
v 0.000005 1238.366613 0.037956
v 3.507591 1235.114307 -0.554350
v 7.015177 1231.664357 -1.032704
v -5.673761 1224.369824 -3.066958
v -2.836878 1224.369824 -3.066958
v 0.000005 1224.369824 -3.066958
v 2.836888 1224.369824 -3.066958
v 5.673771 1224.369824 -3.066958
v -44.351516 1066.945840 -5.555409
v -22.175755 1066.945840 -5.555409
v 0.000005 1066.945840 -5.555409
v 22.175766 1066.945840 -5.555409
v 44.351526 1066.945840 -5.555409
v -42.155891 1047.346335 -5.555409
v -21.077943 1047.346335 -5.555409
v 0.000005 1047.346335 -5.555409
v 21.077954 1047.346335 -5.555409
v 42.155902 1047.346335 -5.555409
v -39.521148 1033.492613 -5.555409
v -19.760572 1033.492613 -5.555409
v 0.000005 1033.492613 -5.555409
v 19.760582 1033.492613 -5.555409
v 39.521159 1033.492613 -5.555409
v -36.840613 1022.512220 -5.555409
v -18.420304 1022.512220 -5.555409
v 0.000005 1022.512220 -5.555409
v 18.420314 1022.512220 -5.555409
v 36.840624 1022.512220 -5.555409
v -31.511895 1013.398673 -7.025631
v -15.755945 1013.398673 -7.025631
v 0.000005 1013.398673 -7.025631
v 15.755955 1013.398673 -7.025631
v 31.511905 1013.398673 -7.025631
v -18.031520 993.798950 -5.054808
v -9.015757 993.798950 -5.054808
v 0.000005 993.798950 -5.054808
v 9.015768 993.798950 -5.054808
v 18.031531 993.798950 -5.054808
v -22.294539 993.798950 -0.960852
v -11.147267 993.798950 -0.960852
v 0.000005 993.798950 -0.960852
v 11.147278 993.798950 -0.960852
v 22.294550 993.798950 -0.960852
v -22.294539 993.798950 2.067751
v -11.147267 993.798950 2.067751
v 0.000005 993.798950 2.067751
v 11.147278 993.798950 2.067751
v 22.294550 993.798950 2.067751
v 38.961985 1013.398673 -1.522942
v 38.961985 1013.398673 2.547803
v 45.550533 1022.512220 -1.032704
v 45.550533 1022.512220 2.057565
v 48.864803 1033.492831 -1.032704
v 48.864803 1033.492831 2.057565
v 52.122457 1047.346335 -1.032704
v 52.122457 1047.346335 2.057565
v 54.837166 1066.945840 -1.032704
v 54.837166 1066.945840 2.057565
v -38.961975 1013.398673 -1.522942
v -38.961975 1013.398673 2.547803
v -45.550522 1022.512220 -1.032704
v -45.550522 1022.512220 2.057565
v -48.864793 1033.492831 -1.032704
v -48.864793 1033.492831 2.057565
v -52.122447 1047.346335 -1.032704
v -52.122447 1047.346335 2.057565
v -54.837156 1066.945840 -1.032704
v -54.837156 1066.945840 2.057565
v -37.215434 1111.795621 6.900722
v -18.607714 1111.795621 6.900722
v 0.000005 1111.795621 6.900722
v 18.607725 1111.795621 6.900722
v 37.215444 1111.795621 6.900722
v 46.013966 1111.795621 2.057565
v 46.013966 1111.795621 -1.032704
v 37.215444 1111.795621 -5.555409
v 18.607725 1111.795621 -5.555409
v 0.000005 1111.795621 -5.555409
v -18.607714 1111.795621 -5.555409
v -37.215434 1111.795621 -5.555409
v -46.013956 1111.795621 -1.032704
v -46.013956 1111.795621 2.057565
v -26.716615 1185.344973 -5.555409
v -13.358305 1185.344973 -5.555409
v 0.000005 1185.344973 -5.555409
v 13.358316 1185.344973 -5.555409
v 26.716626 1185.344973 -5.555409
v 33.032989 1185.344973 -1.032704
v 33.032989 1185.344973 2.057565
v 26.716626 1185.344973 6.900722
v 13.358316 1185.344973 6.900722
v 0.000005 1185.344973 6.900722
v -13.358305 1185.344973 6.900722
v -26.716615 1185.344973 6.900722
v -33.032979 1185.344973 2.057565
v -33.032979 1185.344973 -1.032704
vt 0.723022 0.047640
vt 0.723022 0.004467
vt 0.777322 0.453510
vt 0.761509 0.492436
vt 0.645689 0.450484
vt 0.661489 0.493301
vt 0.789796 0.453510
vt 0.773899 0.496175
vt 0.724554 0.067715
vt 0.748682 0.513077
vt 0.672477 0.512052
vt 0.762868 0.514901
vt 0.724554 0.091903
vt 0.734212 0.091903
vt 0.724554 0.122417
vt 0.734212 0.122417
vt 0.724554 0.165590
vt 0.734212 0.165590
vt 0.724554 0.264382
vt 0.734212 0.264382
vt 0.734212 0.426391
vt 0.724554 0.426391
vt 0.734212 0.528420
vt 0.724554 0.528420
vt 0.674281 0.708921
vt 0.650528 0.869547
vt 0.761040 0.711825
vt 0.784797 0.872450
vt 0.732718 0.536020
vt 0.726048 0.536020
vt 0.730866 0.543183
vt 0.727900 0.543183
vt 0.701793 0.047640
vt 0.701793 0.004467
vt 0.523461 0.450484
vt 0.507845 0.489372
vt 0.898731 0.453510
vt 0.914629 0.496175
vt 0.536660 0.450484
vt 0.520861 0.493301
vt 0.703301 0.067715
vt 0.495350 0.510123
vt 0.925660 0.514901
vt 0.509873 0.512052
vt 0.703301 0.091903
vt 0.712806 0.091903
vt 0.703301 0.122417
vt 0.712806 0.122417
vt 0.703301 0.165590
vt 0.712806 0.165590
vt 0.703301 0.264382
vt 0.712806 0.264382
vt 0.712806 0.426391
vt 0.703301 0.426391
vt 0.712806 0.528420
vt 0.703301 0.528420
vt 0.927488 0.711825
vt 0.903730 0.872450
vt 0.508069 0.708921
vt 0.531822 0.869547
vt 0.711335 0.536020
vt 0.704772 0.536020
vt 0.709513 0.543183
vt 0.706594 0.543183
vt 0.538677 0.247972
vt 0.538677 0.206799
vt 0.557373 0.216533
vt 0.557373 0.267440
vt 0.538677 0.165626
vt 0.557373 0.165626
vt 0.571204 0.216533
vt 0.571204 0.267440
vt 0.538677 0.124454
vt 0.557373 0.114720
vt 0.571204 0.165626
vt 0.590988 0.206799
vt 0.590988 0.247972
vt 0.538677 0.083281
vt 0.557373 0.063813
vt 0.571204 0.114720
vt 0.590988 0.165626
vt 0.571204 0.063813
vt 0.590988 0.124454
vt 0.590988 0.083281
vt 0.564557 0.450484
vt 0.556566 0.492590
vt 0.591175 0.450484
vt 0.591175 0.492590
vt 0.550714 0.512608
vt 0.617793 0.450484
vt 0.625784 0.492590
vt 0.591175 0.512608
vt 0.547770 0.536728
vt 0.504364 0.536728
vt 0.631636 0.512608
vt 0.591175 0.536728
vt 0.544876 0.567158
vt 0.498577 0.567158
vt 0.483840 0.536728
vt 0.634580 0.536728
vt 0.591175 0.567158
vt 0.542465 0.610209
vt 0.493754 0.610209
vt 0.476685 0.567158
vt 0.677985 0.536728
vt 0.637474 0.567158
vt 0.591175 0.610209
vt 0.550302 0.708725
vt 0.470722 0.610209
vt 0.687000 0.510122
vt 0.698509 0.536728
vt 0.683773 0.567158
vt 0.639885 0.610209
vt 0.591175 0.708725
vt 0.561833 0.870280
vt 0.493148 0.709726
vt 0.705665 0.567158
vt 0.688595 0.610209
vt 0.632048 0.708725
vt 0.591175 0.870280
vt 0.584943 0.956000
vt 0.578712 0.956000
vt 0.711628 0.610209
vt 0.620517 0.870280
vt 0.591175 0.956000
vt 0.583470 0.979602
vt 0.575766 0.972023
vt 0.519627 0.870352
vt 0.689202 0.709726
vt 0.597406 0.956000
vt 0.591175 0.986745
vt 0.603638 0.956000
vt 0.598880 0.979602
vt 0.662723 0.870352
vt 0.606584 0.972023
vt 0.859673 0.974909
vt 0.851968 0.982487
vt 0.850495 0.958886
vt 0.856727 0.958886
vt 0.844264 0.989631
vt 0.844264 0.958886
vt 0.873606 0.873166
vt 0.915577 0.873201
vt 0.836559 0.982487
vt 0.838032 0.958886
vt 0.844264 0.873166
vt 0.885137 0.711610
vt 0.828855 0.974909
vt 0.831801 0.958886
vt 0.814921 0.873166
vt 0.844264 0.711610
vt 0.892974 0.613095
vt 0.941684 0.613095
vt 0.772950 0.873201
vt 0.803391 0.711610
vt 0.844264 0.613095
vt 0.890563 0.570043
vt 0.936862 0.570043
vt 0.964717 0.613095
vt 0.942061 0.712577
vt 0.795553 0.613095
vt 0.844264 0.570043
vt 0.887669 0.539613
vt 0.931074 0.539613
vt 0.958754 0.570043
vt 0.746843 0.613095
vt 0.797965 0.570043
vt 0.844264 0.539613
vt 0.884725 0.515494
vt 0.951598 0.539614
vt 0.723811 0.613095
vt 0.746466 0.712577
vt 0.751666 0.570043
vt 0.800858 0.539613
vt 0.844264 0.515494
vt 0.878873 0.495476
vt 0.939845 0.513076
vt 0.729774 0.570043
vt 0.757453 0.539613
vt 0.803802 0.515494
vt 0.844264 0.495476
vt 0.870882 0.453510
vt 0.736929 0.539614
vt 0.809655 0.495476
vt 0.844264 0.453510
vt 0.817646 0.453510
vt 0.714314 0.047640
vt 0.712806 0.067715
vt 0.927019 0.492435
vt 0.714314 0.004467
vt 0.911205 0.453510
vt 0.674505 0.489372
vt 0.735745 0.047640
vt 0.734212 0.067715
vt 0.658886 0.450484
vt 0.735745 0.004467
vn 0.000000 -0.100049 0.994983
vn 0.000000 -0.100049 0.994983
vn 0.000000 0.001789 0.999998
vn 0.000000 0.051413 0.998677
vn 0.000000 -0.100049 0.994983
vn 0.000000 0.001789 0.999998
vn 0.000000 -0.100049 0.994983
vn 0.000000 0.001789 0.999998
vn 0.000000 -0.100049 0.994983
vn 0.000000 0.051414 0.998677
vn 0.000000 0.068601 0.997644
vn 0.000000 0.048437 0.998826
vn 0.000000 0.068601 0.997644
vn 0.000000 0.068601 0.997644
vn 0.000000 0.048437 0.998826
vn 0.000000 0.000000 1.000000
vn 0.000000 0.000000 1.000000
vn 0.000000 0.000000 1.000000
vn 0.000000 0.000000 1.000000
vn 0.000000 0.000000 1.000000
vn 0.000000 0.000000 1.000000
vn 0.000000 0.000000 1.000000
vn 0.000000 0.000000 1.000000
vn 0.000000 0.000000 1.000000
vn 0.000000 0.000000 1.000000
vn 0.000000 0.000000 1.000000
vn 0.000000 0.000000 1.000000
vn 0.000000 0.000000 1.000000
vn 0.000000 0.000000 1.000000
vn 0.000000 0.000000 1.000000
vn 0.000000 0.000000 1.000000
vn 0.000000 0.000000 1.000000
vn 0.000000 0.013509 0.999909
vn 0.000000 0.009221 0.999958
vn 0.000000 0.000000 1.000000
vn 0.000000 0.013509 0.999909
vn 0.000000 0.000000 1.000000
vn 0.000000 0.013509 0.999909
vn 0.000000 0.000000 1.000000
vn 0.000000 0.009221 0.999958
vn -0.073346 0.268077 0.960602
vn -0.050798 0.254200 0.965817
vn -0.210644 0.406443 0.889063
vn -0.242989 0.422905 0.872988
vn 0.000000 0.244346 0.969688
vn 0.000000 0.470919 0.882176
vn 0.050798 0.254200 0.965817
vn 0.210644 0.406443 0.889063
vn 0.073345 0.268075 0.960602
vn 0.242989 0.422903 0.872989
vn -0.200450 0.386904 -0.900069
vn -0.230514 0.399786 -0.887150
vn -0.000000 0.453341 -0.891337
vn 0.200450 0.386904 -0.900069
vn 0.230514 0.399787 -0.887149
vn -0.036365 0.228022 -0.972977
vn -0.056372 0.238109 -0.969601
vn -0.000000 0.220843 -0.975309
vn 0.036365 0.228022 -0.972977
vn 0.056372 0.238110 -0.969601
vn 0.000000 0.009221 -0.999958
vn 0.000000 0.013508 -0.999909
vn 0.000000 0.000000 -1.000000
vn 0.000000 0.000000 -1.000000
vn 0.000000 0.013509 -0.999909
vn 0.000000 0.000000 -1.000000
vn 0.000000 0.013509 -0.999909
vn 0.000000 0.000000 -1.000000
vn 0.000000 0.009221 -0.999958
vn 0.000000 0.000000 -1.000000
vn 0.000000 0.000000 -1.000000
vn 0.000000 0.000000 -1.000000
vn 0.000000 0.000000 -1.000000
vn 0.000000 0.000000 -1.000000
vn 0.000000 0.000000 -1.000000
vn 0.000000 0.000000 -1.000000
vn 0.000000 0.000000 -1.000000
vn 0.000000 0.000000 -1.000000
vn 0.000000 0.000000 -1.000000
vn 0.000000 0.000000 -1.000000
vn 0.000000 0.000000 -1.000000
vn 0.000000 0.000000 -1.000000
vn 0.000000 0.000000 -1.000000
vn 0.000000 0.000000 -1.000000
vn 0.000000 0.000000 -1.000000
vn 0.000000 0.068603 -0.997644
vn 0.000000 0.048438 -0.998826
vn 0.000000 0.068602 -0.997644
vn 0.000000 0.068603 -0.997644
vn 0.000000 0.048438 -0.998826
vn 0.000000 0.001790 -0.999998
vn 0.000000 0.051414 -0.998677
vn 0.000000 0.001789 -0.999998
vn 0.000000 0.001789 -0.999998
vn 0.000000 0.051414 -0.998677
vn 0.000000 -0.100049 -0.994983
vn 0.000000 -0.100049 -0.994983
vn 0.000000 -0.100049 -0.994983
vn 0.000000 -0.100049 -0.994983
vn 0.000000 -0.100049 -0.994983
vn 0.000000 -1.000000 0.000019
vn 0.000000 -1.000000 0.000025
vn 0.000000 -1.000000 0.000012
vn 0.000000 -1.000000 0.000007
vn 0.000000 -1.000000 0.000033
vn 0.000000 -1.000000 0.000018
vn 0.000000 -1.000000 0.000041
vn 0.000000 -1.000000 0.000024
vn 0.000000 -1.000000 0.000047
vn 0.000000 -1.000000 0.000018
vn 0.000000 -1.000000 -0.000012
vn 0.000000 -1.000000 -0.000007
vn 0.000000 -1.000000 -0.000018
vn 0.000000 -1.000000 -0.000017
vn 0.000000 -1.000000 -0.000011
vn 0.000000 -1.000000 -0.000023
vn 0.000000 -1.000000 -0.000018
vn 0.000000 -1.000000 -0.000031
vn 0.000000 -1.000000 -0.000032
vn 0.000000 -1.000000 -0.000027
vn 0.656658 -0.557402 -0.508039
vn 0.558254 -0.473374 -0.681373
vn 0.551348 -0.425663 -0.717514
vn 0.683514 -0.499555 -0.532216
vn 0.690031 -0.503858 0.519600
vn 0.663982 -0.560702 0.494713
vn 0.573735 -0.482626 0.661740
vn 0.567933 -0.436086 0.698055
vn 0.482808 -0.190634 -0.854725
vn 0.662417 -0.275651 -0.696577
vn 0.674522 -0.280240 0.682997
vn 0.505367 -0.202346 0.838844
vn 0.433421 -0.105307 -0.895018
vn 0.621031 -0.153367 -0.768634
vn 0.636133 -0.156811 0.755476
vn 0.457483 -0.111130 0.882247
vn 0.412298 -0.068076 -0.908502
vn 0.603305 -0.099981 -0.791219
vn 0.618791 -0.102349 0.778860
vn 0.435953 -0.071962 0.897088
vn 0.418165 0.036512 -0.907637
vn 0.629007 0.055539 -0.775413
vn 0.643656 0.056719 0.763211
vn 0.442115 0.038596 0.896128
vn 0.667724 0.116400 -0.735252
vn 0.478513 0.079353 -0.874487
vn 0.494178 0.156064 -0.855238
vn 0.710327 0.203727 -0.673744
vn 0.723633 0.207389 0.658290
vn 0.682410 0.118766 0.721257
vn 0.503741 0.083542 0.859806
vn 0.522688 0.165213 0.836363
vn -0.558251 -0.473371 -0.681378
vn -0.656656 -0.557400 -0.508043
vn -0.683512 -0.499555 -0.532218
vn -0.551344 -0.425661 -0.717518
vn -0.663984 -0.560704 0.494709
vn -0.690032 -0.503858 0.519598
vn -0.573738 -0.482629 0.661735
vn -0.567937 -0.436089 0.698051
vn -0.662418 -0.275651 -0.696577
vn -0.482807 -0.190633 -0.854726
vn -0.674521 -0.280240 0.682998
vn -0.505368 -0.202347 0.838844
vn -0.621032 -0.153367 -0.768634
vn -0.433422 -0.105308 -0.895017
vn -0.636133 -0.156811 0.755477
vn -0.457482 -0.111130 0.882247
vn -0.603305 -0.099981 -0.791219
vn -0.412297 -0.068076 -0.908502
vn -0.618791 -0.102349 0.778860
vn -0.435953 -0.071962 0.897088
vn -0.629007 0.055539 -0.775413
vn -0.418166 0.036512 -0.907637
vn -0.643656 0.056719 0.763211
vn -0.442115 0.038596 0.896128
vn -0.478513 0.079353 -0.874487
vn -0.667724 0.116400 -0.735252
vn -0.710326 0.203727 -0.673745
vn -0.494176 0.156063 -0.855239
vn -0.723633 0.207389 0.658289
vn -0.682410 0.118766 0.721257
vn -0.503741 0.083542 0.859806
vn -0.522689 0.165214 0.836361
vn 0.000000 0.063636 -0.997973
vn 0.000000 0.063637 -0.997973
vn 0.000000 0.063637 -0.997973
vn 0.000000 0.063637 -0.997973
vn 0.000000 0.063637 -0.997973
vn 0.458557 0.277474 -0.844236
vn 0.778530 0.447672 -0.439865
vn 0.781499 0.448940 0.433259
vn 0.490505 0.294390 0.820207
vn 0.000000 0.063637 0.997973
vn 0.000000 0.063637 0.997973
vn 0.000000 0.063637 0.997973
vn 0.000000 0.063637 0.997973
vn 0.000000 0.063637 0.997973
vn -0.490509 0.294392 0.820204
vn -0.781500 0.448940 0.433256
vn -0.778529 0.447672 -0.439867
vn -0.458553 0.277471 -0.844239
s 1
g Spear_Stick
usemtl initialShadingGroup
f 1/39/1 2/85/2 7/86/3 6/40/4
f 2/85/2 3/87/5 8/88/6 7/86/3
f 3/87/5 4/90/7 9/91/8 8/88/6
f 4/90/7 5/5/9 10/6/10 9/91/8
f 6/40/4 7/86/3 12/89/11 11/44/12
f 7/86/3 8/88/6 13/92/13 12/89/11
f 8/88/6 9/91/8 14/95/14 13/92/13
f 9/91/8 10/6/10 15/11/15 14/95/14
f 11/44/12 12/89/11 17/93/16 16/94/17
f 12/89/11 13/92/13 18/96/18 17/93/16
f 13/92/13 14/95/14 19/100/19 18/96/18
f 14/95/14 15/11/15 20/105/20 19/100/19
f 16/94/17 17/93/16 22/97/21 21/98/22
f 17/93/16 18/96/18 23/101/23 22/97/21
f 18/96/18 19/100/19 24/106/24 23/101/23
f 19/100/19 20/105/20 25/112/25 24/106/24
f 21/98/22 22/97/21 27/102/26 26/103/27
f 22/97/21 23/101/23 28/107/28 27/102/26
f 23/101/23 24/106/24 29/113/29 28/107/28
f 24/106/24 25/112/25 30/118/30 29/113/29
f 111/59/31 112/108/32 135/115/33 136/60/34
f 112/108/32 113/114/35 134/120/36 135/115/33
f 113/114/35 114/119/37 133/124/38 134/120/36
f 114/119/37 115/25/39 132/26/40 133/124/38
s 2
f 31/122/41 32/121/42 37/126/43 36/127/44
f 32/121/42 33/125/45 38/131/46 37/126/43
f 33/125/45 34/130/47 39/133/48 38/131/46
f 34/130/47 35/132/49 40/135/50 39/133/48
f 37/61/43 42/62/51 41/56/52 36/55/44
f 38/63/46 43/64/53 42/62/51 37/61/43
f 39/30/48 44/29/54 43/31/53 38/32/46
f 45/23/55 44/29/54 39/30/48 40/24/50
f 41/136/52 42/137/51 47/138/56 46/139/57
f 42/137/51 43/140/53 48/141/58 47/138/56
f 43/140/53 44/144/54 49/145/59 48/141/58
f 44/144/54 45/148/55 50/149/60 49/145/59
s 3
f 125/58/61 126/142/62 121/147/63 122/57/64
f 126/142/62 127/146/65 120/151/66 121/147/63
f 127/146/65 128/150/67 119/155/68 120/151/66
f 128/150/67 129/28/69 118/27/70 119/155/68
f 51/153/71 52/152/72 57/157/73 56/158/74
f 52/152/72 53/156/75 58/162/76 57/157/73
f 53/156/75 54/161/77 59/167/78 58/162/76
f 54/161/77 55/166/79 60/173/80 59/167/78
f 56/158/74 57/157/73 62/163/81 61/164/82
f 57/157/73 58/162/76 63/168/83 62/163/81
f 58/162/76 59/167/78 64/174/84 63/168/83
f 59/167/78 60/173/80 65/179/85 64/174/84
f 61/164/82 62/163/81 67/169/86 66/43/87
f 62/163/81 63/168/83 68/175/88 67/169/86
f 63/168/83 64/174/84 69/180/89 68/175/88
f 64/174/84 65/179/85 70/12/90 69/180/89
f 66/43/87 67/169/86 72/176/91 71/38/92
f 67/169/86 68/175/88 73/181/93 72/176/91
f 68/175/88 69/180/89 74/184/94 73/181/93
f 69/180/89 70/12/90 75/8/95 74/184/94
f 71/38/92 72/176/91 77/182/96 76/37/97
f 72/176/91 73/181/93 78/185/98 77/182/96
f 73/181/93 74/184/94 79/186/99 78/185/98
f 74/184/94 75/8/95 80/7/100 79/186/99
s 4
f 76/65/101 77/66/102 82/67/103 81/68/104
f 77/66/102 78/69/105 83/70/106 82/67/103
f 78/69/105 79/73/107 84/74/108 83/70/106
f 79/73/107 80/78/109 85/79/110 84/74/108
f 82/67/103 87/71/111 86/72/112 81/68/104
f 83/70/106 88/75/113 87/71/111 82/67/103
f 84/74/108 89/80/114 88/75/113 83/70/106
f 90/82/115 89/80/114 84/74/108 85/79/110
f 86/72/112 87/71/111 2/76/116 1/77/117
f 87/71/111 88/75/113 3/81/118 2/76/116
f 88/75/113 89/80/114 4/83/119 3/81/118
f 89/80/114 90/82/115 5/84/120 4/83/119
s 5
f 85/3/121 80/7/122 75/8/123 91/4/124
f 92/1/125 90/2/126 85/196/121 91/193/124
f 5/5/127 90/195/126 92/192/125 10/6/128
f 91/4/124 75/8/123 70/12/129 93/10/130
f 94/9/131 92/1/125 91/193/124 93/194/130
f 10/6/128 92/192/125 94/110/131 15/11/132
f 93/10/130 70/12/129 65/179/133 95/183/134
f 96/13/135 94/9/131 93/194/130 95/14/134
f 15/11/132 94/110/131 96/111/135 20/105/136
f 95/183/134 65/179/133 60/173/137 97/178/138
f 98/15/139 96/13/135 95/14/134 97/16/138
f 20/105/136 96/111/135 98/117/139 25/112/140
f 97/178/138 60/173/137 55/166/141 99/171/142
f 100/17/143 98/15/139 97/16/138 99/18/142
f 25/112/140 98/117/139 100/123/143 30/118/144
f 117/172/145 118/27/146 129/28/147 130/154/148
f 130/21/148 131/22/149 116/19/150 117/20/145
f 115/25/151 116/129/150 131/134/149 132/26/152
s 6
f 76/37/153 81/191/154 101/189/155 71/38/156
f 101/33/155 81/34/154 86/190/157 102/187/158
f 86/35/157 1/39/159 6/40/160 102/36/158
f 71/38/156 101/189/155 103/177/161 66/43/162
f 103/41/161 101/33/155 102/187/158 104/188/163
f 102/36/158 6/40/160 11/44/164 104/42/163
f 66/43/162 103/177/161 105/170/165 61/164/166
f 105/45/165 103/41/161 104/188/163 106/46/167
f 104/42/163 11/44/164 16/94/168 106/99/167
f 61/164/166 105/170/165 107/165/169 56/158/170
f 107/47/169 105/45/165 106/46/167 108/48/171
f 106/99/167 16/94/168 21/98/172 108/104/171
f 56/158/170 107/165/169 109/159/173 51/153/174
f 109/49/173 107/47/169 108/48/171 110/50/175
f 108/104/171 21/98/172 26/103/176 110/109/175
f 122/57/177 123/160/178 138/143/179 125/58/180
f 137/53/181 138/54/179 123/51/178 124/52/182
f 124/116/182 111/59/183 136/60/184 137/128/181
s 1
f 26/103/27 27/102/26 112/108/32 111/59/31
f 27/102/26 28/107/28 113/114/35 112/108/32
f 28/107/28 29/113/29 114/119/37 113/114/35
f 29/113/29 30/118/30 115/25/39 114/119/37
s 5
f 30/118/144 100/123/143 116/129/150 115/25/151
f 116/19/150 100/17/143 99/18/142 117/20/145
f 99/171/142 55/166/141 118/27/146 117/172/145
s 3
f 119/155/68 118/27/70 55/166/79 54/161/77
f 120/151/66 119/155/68 54/161/77 53/156/75
f 121/147/63 120/151/66 53/156/75 52/152/72
f 122/57/64 121/147/63 52/152/72 51/153/71
s 6
f 51/153/174 109/159/173 123/160/178 122/57/177
f 123/51/178 109/49/173 110/50/175 124/52/182
f 110/109/175 26/103/176 111/59/183 124/116/182
s 3
f 46/139/185 47/138/186 126/142/62 125/58/61
f 47/138/186 48/141/187 127/146/65 126/142/62
f 48/141/187 49/145/188 128/150/67 127/146/65
f 49/145/188 50/149/189 129/28/69 128/150/67
s 5
f 130/154/148 129/28/147 50/149/190 45/148/191
f 45/23/191 40/24/192 131/22/149 130/21/148
f 132/26/152 131/134/149 40/135/192 35/132/193
s 1
f 133/124/38 132/26/40 35/132/194 34/130/195
f 134/120/36 133/124/38 34/130/195 33/125/196
f 135/115/33 134/120/36 33/125/196 32/121/197
f 136/60/34 135/115/33 32/121/197 31/122/198
s 6
f 137/128/181 136/60/184 31/122/199 36/127/200
f 36/55/200 41/56/201 138/54/179 137/53/181
f 125/58/180 138/143/179 41/136/201 46/139/202
