# This file uses centimeters as units for non-parametric coordinates.

mtllib Feather_Model.mtl
g default
v -12.205477 -0.000000 12.205477
v 12.205477 -0.000000 12.205477
v -12.205477 0.000000 -12.205477
v 12.205477 0.000000 -12.205477
vt 0.005602 0.005602
vt 0.994398 0.005602
vt 0.994398 0.994398
vt 0.005602 0.994398
vn 0.000000 1.000000 0.000000
vn 0.000000 1.000000 0.000000
vn 0.000000 1.000000 0.000000
vn 0.000000 1.000000 0.000000
s off
g Feather_Model
usemtl initialShadingGroup
f 1/1/1 2/2/2 4/3/3 3/4/4
