# This file uses centimeters as units for non-parametric coordinates.

mtllib Flint_Splinter_LOW.mtl
g default
v -2.667973 -0.551600 3.979796
v -0.914253 -0.551600 5.554676
v 1.146469 -0.551600 5.554676
v 2.475252 -0.387741 3.949496
v -4.197858 -0.261156 5.557664
v -1.932440 -0.261156 7.675239
v 1.674782 -0.273385 7.309893
v 4.197858 -0.261156 5.557664
v -4.197858 0.261156 5.557664
v -1.932440 0.261156 7.675239
v 1.674782 0.248926 7.309893
v 4.197858 0.261156 5.557664
v -2.808383 0.399084 3.701316
v -0.921670 0.486039 5.287332
v 1.153884 0.486039 5.287332
v 3.075309 0.265507 3.655682
v -4.018704 0.535808 -0.506304
v -1.727415 0.783468 0.000000
v 1.727415 0.783468 0.000000
v 3.104261 0.402231 -0.029432
v -3.228330 0.511872 -4.163319
v -1.223603 0.598827 -5.322518
v 0.851951 0.598827 -5.322518
v 3.104261 0.402231 -4.151267
v -4.197858 0.261156 -5.557664
v -1.932440 0.261156 -7.675239
v 1.914111 0.253013 -7.368387
v 4.197858 0.261156 -5.557664
v -4.197858 -0.261156 -5.557664
v -1.932440 -0.261156 -7.675239
v 1.914111 -0.269299 -7.368387
v 4.197858 -0.261156 -5.557664
v -3.091083 -0.617764 -3.994140
v -1.219350 -0.617764 -5.164476
v 0.841372 -0.617764 -5.164476
v 2.504205 -0.453905 -3.997101
v -3.878293 -0.783468 -0.495167
v -1.727415 -0.783468 0.000000
v 1.727415 -0.783468 0.000000
v 2.504205 -0.619609 -0.002961
v 5.371841 -0.261156 0.000000
v 5.371841 0.261156 0.000000
v -5.371841 -0.261156 0.000000
v -5.371841 0.261156 0.000000
v -4.433570 0.000000 5.869730
v -2.040948 0.000000 8.106207
v 1.783290 -0.012229 7.740862
v 4.433570 0.000000 5.869730
v 5.673473 0.000000 0.000000
v 4.433570 -0.000000 -5.869730
v 2.022618 -0.008143 -7.799355
v -2.040948 -0.000000 -8.106207
v -4.433570 -0.000000 -5.869730
v -5.673473 0.000000 0.000000
v -3.231493 0.535808 -1.877565
v -1.415137 0.710698 -1.866429
v 1.415137 0.710698 -1.866429
v 3.687251 0.402230 -2.116262
v 4.840244 0.261156 -2.516593
v 5.112026 0.000000 -2.657902
v 4.840244 -0.261156 -2.516593
v 3.087195 -0.619609 -2.076450
v 1.411779 -0.783468 -1.853087
v -1.411778 -0.783468 -1.853087
v -3.091083 -0.783468 -1.853087
v -4.296336 -0.275390 -2.384289
v -4.568118 -0.014235 -2.525597
v -4.296336 0.246921 -2.384289
v -3.587248 0.535808 2.172627
v -1.394127 0.705802 1.992000
v 1.394127 0.705802 1.992000
v 3.104261 0.402231 1.962569
v 4.408501 0.250306 2.715322
v 4.678274 -0.010850 2.866137
v 4.408501 -0.272006 2.715322
v 2.504205 -0.619609 1.974801
v 1.390543 -0.783468 1.977762
v -1.390542 -0.783468 1.977762
v -3.446837 -0.783468 2.169525
v -4.804479 -0.261156 2.685908
v -5.074252 0.000000 2.836723
v -4.804479 0.261156 2.685908
vt 0.636672 0.505729
vt 0.627340 0.490193
vt 0.686018 0.504543
vt 0.680343 0.514294
vt 0.424089 0.444136
vt 0.407849 0.449866
vt 0.613626 0.473647
vt 0.685144 0.492621
vt 0.779586 0.558746
vt 0.787612 0.530990
vt 0.577943 0.531944
vt 0.642561 0.553514
vt 0.439858 0.438395
vt 0.379301 0.453930
vt 0.379482 0.439614
vt 0.589685 0.404184
vt 0.666759 0.415359
vt 0.792901 0.502984
vt 0.536939 0.605306
vt 0.684833 0.632220
vt 0.496614 0.360484
vt 0.384517 0.425833
vt 0.306064 0.431552
vt 0.309010 0.439922
vt 0.741281 0.382728
vt 0.592157 0.337025
vt 0.457423 0.577486
vt 0.459078 0.529011
vt 0.504521 0.331810
vt 0.420740 0.356133
vt 0.311012 0.423639
vt 0.381432 0.565789
vt 0.396216 0.508528
vt 0.421086 0.313901
vt 0.265521 0.519172
vt 0.342908 0.488645
vt 0.344416 0.366928
vt 0.272924 0.338301
vt 0.564964 0.980102
vt 0.451571 0.972326
vt 0.483721 0.902688
vt 0.657437 0.927650
vt 0.380455 0.933575
vt 0.373141 0.865594
vt 0.493148 0.882204
vt 0.671248 0.910095
vt 0.251988 0.897393
vt 0.268103 0.826648
vt 0.375965 0.852984
vt 0.492881 0.860334
vt 0.665290 0.889152
vt 0.810816 0.940222
vt 0.796968 0.959259
vt 0.155079 0.865400
vt 0.147766 0.753669
vt 0.271971 0.809032
vt 0.381257 0.840937
vt 0.489430 0.797735
vt 0.600773 0.824253
vt 0.806004 0.917104
vt 0.156009 0.736542
vt 0.283248 0.795621
vt 0.420928 0.803844
vt 0.074438 0.622121
vt 0.090008 0.602399
vt 0.174330 0.728748
vt 0.319340 0.751869
vt 0.114651 0.600589
vt 0.268109 0.699881
vt 0.352566 0.669070
vt 0.429018 0.707860
vt 0.213538 0.399629
vt 0.248640 0.244232
vt 0.128418 0.228936
vt 0.420410 0.187905
vt 0.305939 0.135801
vt 0.201588 0.081651
vt 0.528317 0.174911
vt 0.406280 0.075292
vt 0.626144 0.208478
vt 0.569525 0.053940
vt 0.789999 0.288351
vt 0.650275 0.114648
vt 0.933019 0.328882
vt 0.775564 0.162387
vt 0.891945 0.149818
vt 0.231734 0.599367
vt 0.209908 0.449415
vt 0.512058 0.717803
vt 0.676561 0.731352
vt 0.800099 0.776658
vt 0.028654 0.412335
vt 0.210452 0.424269
vt 0.034209 0.436772
vt 0.037444 0.388866
vt 0.991875 0.605530
vt 1.005688 0.580065
vt 1.004130 0.551145
vn -0.087621 -0.991578 0.095373
vn -0.037827 -0.991787 0.122176
vn -0.075273 -0.974060 0.213401
vn -0.155812 -0.973398 0.167984
vn 0.043325 -0.993064 0.109301
vn 0.082611 -0.975584 0.203497
vn 0.094551 -0.993924 0.056346
vn 0.165139 -0.970104 0.177838
vn -0.682867 -0.000000 0.730543
vn -0.289674 0.013401 0.957031
vn -0.061255 0.982918 0.173553
vn -0.131095 0.983601 0.123871
vn 0.327655 -0.025071 0.944465
vn 0.072654 0.981687 0.176103
vn 0.573382 0.026952 0.818845
vn 0.129076 0.982939 0.131037
vn -0.023440 0.996488 0.080386
vn -0.064392 0.996731 0.048788
vn 0.034093 0.996571 0.075398
vn 0.070842 0.996984 0.031675
vn -0.095555 0.993606 0.060130
vn -0.038011 0.997690 0.056306
vn -0.043267 0.999063 0.000871
vn -0.095218 0.995456 -0.001299
vn 0.063425 0.996448 0.055398
vn 0.073272 0.997294 0.006008
vn 0.191955 0.979273 0.064626
vn 0.199238 0.979863 0.013156
vn -0.084880 0.995623 -0.039119
vn -0.030997 0.998862 -0.036242
vn -0.024315 0.999242 -0.030395
vn -0.076163 0.996752 -0.026158
vn 0.059749 0.997670 -0.032926
vn 0.039274 0.998557 -0.036624
vn 0.143445 0.989173 -0.030989
vn 0.119923 0.991752 -0.045237
vn -0.103639 0.988644 -0.108822
vn -0.034540 0.990106 -0.136002
vn -0.070044 0.972017 -0.224227
vn -0.169834 0.968880 -0.180080
vn 0.036091 0.990804 -0.130406
vn 0.083257 0.974128 -0.210104
vn 0.094447 0.992232 -0.080962
vn 0.154136 0.974193 -0.164893
vn -0.287395 0.008604 -0.957774
vn -0.682867 0.000000 -0.730543
vn 0.327213 -0.016797 -0.944802
vn 0.622979 0.018760 -0.782014
vn -0.164470 -0.967686 -0.191138
vn -0.069451 -0.971733 -0.225637
vn -0.039445 -0.989484 -0.139160
vn -0.101303 -0.986656 -0.127468
vn 0.080433 -0.976824 -0.198358
vn 0.035869 -0.991771 -0.122894
vn 0.162240 -0.973018 -0.164054
vn 0.097111 -0.992712 -0.071357
vn -0.020225 -0.997910 -0.061368
vn -0.005746 -0.998567 -0.053217
vn -0.004578 -0.999498 -0.031356
vn -0.010383 -0.999450 -0.031504
vn 0.032254 -0.997647 -0.060498
vn 0.039043 -0.998652 -0.034209
vn 0.122369 -0.988433 -0.089585
vn 0.125673 -0.990199 -0.060932
vn 0.000000 -1.000000 0.000000
vn 0.000000 -1.000000 0.000000
vn -0.007007 -0.999165 0.040246
vn -0.014211 -0.999132 0.039147
vn 0.046832 -0.998896 0.003590
vn 0.041424 -0.998297 0.041078
vn 0.148692 -0.988819 0.011320
vn 0.185143 -0.980342 0.068200
vn 0.237748 -0.970071 -0.049386
vn 0.141855 -0.989638 -0.022234
vn 0.121754 -0.990549 -0.063150
vn 0.260824 -0.961709 -0.084182
vn 0.213718 -0.975228 0.057051
vn 0.129246 -0.991012 0.034511
vn 0.147087 -0.988994 0.016034
vn 0.253469 -0.967080 0.022585
vn 0.232980 0.971550 -0.042557
vn 0.978409 0.000000 -0.206676
vn 0.978409 0.000001 -0.206676
vn 0.306385 0.949556 -0.066871
vn 0.202322 0.977953 0.051715
vn 0.978561 -0.020694 0.204917
vn 0.996887 0.012169 0.077894
vn 0.231211 0.972668 0.021393
vn 0.091514 0.995755 -0.009891
vn 0.104562 0.994198 -0.025241
vn 0.066513 0.997565 0.020990
vn 0.079675 0.996760 0.010984
vn -0.319675 -0.946766 -0.037980
vn -0.337548 -0.934356 -0.114190
vn -0.421426 -0.900109 -0.110467
vn -0.469385 -0.882287 -0.035335
vn -0.337645 -0.940384 -0.040921
vn -0.278179 -0.957386 0.077645
vn -0.350093 -0.931728 0.096532
vn -0.419982 -0.907026 -0.030311
vn -0.999039 0.025549 -0.035608
vn -0.978414 -0.026129 -0.204994
vn -0.372139 0.924589 -0.081536
vn -0.438580 0.898601 -0.012815
vn -0.995579 0.015996 -0.092559
vn -0.978409 0.000000 0.206676
vn -0.273292 0.959221 0.072152
vn -0.338029 0.940751 -0.026924
vn -0.239412 0.969240 -0.057055
vn -0.250790 0.968020 -0.006389
vn -0.154392 0.986860 0.047653
vn -0.209599 0.977220 -0.033306
vn -0.096192 0.990512 0.098149
vn -0.025412 0.996863 0.074958
vn 0.057216 0.995834 0.071004
vn 0.178001 0.980798 0.079696
vn 0.354752 0.934009 0.042159
vn 0.032146 0.999050 0.029425
vn 0.996742 0.022132 0.077555
vn 0.273288 -0.960191 0.057854
vn 0.094482 -0.994018 0.054785
vn 0.191076 -0.977345 0.091036
vn 0.044001 -0.996507 0.070972
vn -0.007630 -0.997434 0.071186
vn -0.033967 -0.995033 0.093568
vn -0.197028 -0.974589 0.106568
vn -0.325183 -0.938308 0.117616
vn -0.978409 0.000000 0.206676
vn -0.290490 0.952599 0.090389
vn -0.100387 0.992986 0.062460
s 1
g pCube1
usemtl initialShadingGroup
f 1/76/1 2/73/2 6/74/3 5/77/4
f 2/73/2 3/38/5 7/72/6 6/74/3
f 3/38/5 4/37/7 8/31/8 7/72/6
f 45/61/9 46/65/10 10/68/11 9/66/12
f 46/92/10 47/93/13 11/88/14 10/94/11
f 47/93/13 48/23/15 12/24/16 11/88/14
f 9/66/12 10/68/11 14/87/17 13/69/18
f 10/68/11 11/88/14 15/35/19 14/87/17
f 11/88/14 12/24/16 16/36/20 15/35/19
s 2
f 69/67/21 70/70/22 18/71/23 17/63/24
f 70/70/22 71/32/25 19/27/26 18/71/23
f 71/32/25 72/33/27 20/28/28 19/27/26
f 55/58/29 56/89/30 22/90/31 21/59/32
f 56/89/30 57/19/33 23/20/34 22/90/31
f 57/19/33 58/11/35 24/12/36 23/20/34
s 3
f 21/59/37 22/90/38 26/91/39 25/51/40
f 22/90/38 23/20/41 27/9/42 26/91/39
f 23/20/41 24/12/43 28/4/44 27/9/42
f 25/51/40 26/60/39 52/52/45 53/46/46
f 26/96/39 27/9/42 51/10/47 52/97/45
f 27/9/42 28/4/44 50/3/48 51/10/47
f 29/86/49 30/84/50 34/82/51 33/85/52
f 30/84/50 31/18/53 35/25/54 34/82/51
f 31/18/53 32/8/55 36/17/56 35/25/54
s 4
f 33/85/57 34/82/58 64/80/59 65/83/60
f 34/82/58 35/25/61 63/26/62 64/80/59
f 35/25/61 36/17/63 62/16/64 63/26/62
f 37/81/65 38/78/66 78/75/67 79/79/68
f 38/78/66 39/29/69 77/34/70 78/75/67
f 39/29/69 40/21/71 76/30/72 77/34/70
s 5
f 61/7/73 62/16/74 36/17/75 32/8/76
f 75/22/77 76/30/78 40/21/79 41/13/80
f 59/1/81 60/2/82 50/3/83 28/4/84
f 73/14/85 74/15/86 49/5/87 42/6/88
f 58/11/89 59/1/81 28/4/84 24/12/90
f 72/33/91 73/14/85 42/6/88 20/28/92
s 9
f 33/39/93 65/40/94 66/41/95 29/42/96
f 37/43/97 79/47/98 80/48/99 43/44/100
f 53/46/101 67/45/102 68/50/103 25/51/104
f 54/49/105 81/56/106 82/62/107 44/57/108
f 25/51/104 68/50/103 55/58/109 21/59/110
f 44/57/108 82/62/107 69/67/111 17/63/112
s 1
f 5/55/4 6/64/3 46/65/10 45/61/9
f 6/95/3 7/72/6 47/93/13 46/92/10
f 7/72/6 8/31/8 48/23/15 47/93/13
s 5
f 74/15/86 75/22/77 41/13/80 49/5/87
f 60/2/82 61/7/73 32/8/76 50/3/83
s 3
f 51/10/47 50/3/48 32/8/55 31/18/53
f 52/97/45 51/10/47 31/18/53 30/98/50
f 53/46/46 52/52/45 30/53/50 29/42/49
s 9
f 29/42/96 66/41/95 67/45/102 53/46/101
f 43/44/100 80/48/99 81/56/106 54/49/105
s 2
f 17/63/24 18/71/23 56/89/30 55/58/29
f 18/71/23 19/27/26 57/19/33 56/89/30
f 19/27/26 20/28/28 58/11/35 57/19/33
s 5
f 42/6/88 59/1/81 58/11/89 20/28/92
f 49/5/87 60/2/82 59/1/81 42/6/88
f 41/13/80 61/7/73 60/2/82 49/5/87
f 40/21/79 62/16/74 61/7/73 41/13/80
s 4
f 63/26/62 62/16/64 40/21/71 39/29/69
f 64/80/59 63/26/62 39/29/69 38/78/66
f 65/83/60 64/80/59 38/78/66 37/81/65
s 9
f 66/41/95 65/40/94 37/43/97 43/44/100
f 67/45/102 66/41/95 43/44/100 54/49/105
f 68/50/103 67/45/102 54/49/105 44/57/108
f 55/58/109 68/50/103 44/57/108 17/63/112
s 2
f 13/69/113 14/87/114 70/70/22 69/67/21
f 14/87/114 15/35/115 71/32/25 70/70/22
f 15/35/115 16/36/116 72/33/27 71/32/25
s 5
f 12/24/117 73/14/85 72/33/91 16/36/118
f 48/23/119 74/15/86 73/14/85 12/24/117
f 8/31/120 75/22/77 74/15/86 48/23/119
f 4/37/121 76/30/78 75/22/77 8/31/120
s 4
f 77/34/70 76/30/72 4/37/122 3/38/123
f 78/75/67 77/34/70 3/38/123 2/73/124
f 79/79/68 78/75/67 2/73/124 1/76/125
s 9
f 80/48/99 79/47/98 1/54/126 5/55/127
f 81/56/106 80/48/99 5/55/127 45/61/128
f 82/62/107 81/56/106 45/61/128 9/66/129
f 69/67/111 82/62/107 9/66/129 13/69/130
