# This file uses centimeters as units for non-parametric coordinates.

mtllib Flint_Splinter_03.mtl
g default
v -4.558242 -0.551600 5.795258
v -0.914253 -0.551600 9.389622
v 1.146469 -0.551600 9.389622
v 2.475252 -0.387741 6.676226
v -6.799333 -0.290780 9.780152
v -1.932440 -0.261156 12.974221
v 1.674782 -0.273385 12.356641
v 4.197858 -0.261156 9.394673
v -6.707574 0.223129 9.797111
v -1.932440 0.261156 12.974221
v 1.674782 0.248926 12.356641
v 4.197858 0.261156 9.394673
v -4.355457 0.399084 6.256039
v -0.921670 0.486039 8.937704
v 1.153884 0.486039 8.937704
v 3.075309 0.265507 6.179563
v -4.311671 0.535808 0.037997
v -1.727415 0.783468 0.000000
v 1.727415 0.783468 0.000000
v 3.104261 0.402231 -0.049751
v -3.228330 0.511872 -7.037674
v -1.223603 0.598827 -8.997183
v 0.851951 0.598827 -8.997183
v 3.104261 0.402231 -7.017300
v -4.197858 0.261156 -9.394673
v -1.973972 0.261156 -12.223780
v 1.967303 0.253013 -11.762244
v 5.647849 0.261156 -8.659294
v -4.197858 -0.261156 -9.394673
v -1.973972 -0.261156 -12.223780
v 1.967303 -0.269299 -11.762244
v 5.647849 -0.261156 -8.659294
v -3.091083 -0.617764 -6.751693
v -1.219350 -0.617764 -8.730028
v 0.841372 -0.617764 -8.730028
v 2.504205 -0.453905 -6.756699
v -2.047945 -0.783468 0.056823
v -1.727415 -0.783468 0.000000
v 1.727415 -0.783468 0.000000
v 2.504205 -0.619609 -0.005005
v 6.370849 -0.261156 0.380811
v 6.370849 0.261156 0.380811
v -6.809111 -0.261156 0.194731
v -6.809111 0.261156 0.194731
v -7.199136 0.033826 10.150050
v -2.040948 0.000000 13.702730
v 1.783290 -0.012229 13.085150
v 4.433570 0.000000 9.922189
v 6.672481 0.000000 0.380811
v 6.187533 -0.000000 -8.865630
v 2.075811 -0.008143 -12.490753
v -2.082480 -0.000000 -12.952289
v -4.433570 -0.000000 -9.922189
v -7.110743 0.000000 0.194731
v -4.460278 0.535808 -4.702325
v -1.415137 0.710698 -3.155010
v -0.115226 0.710698 -2.819077
v 2.156888 0.402230 -3.241396
v 3.268370 0.261156 -4.002062
v 3.623174 0.000000 -4.073036
v 3.268370 -0.261156 -4.002062
v 1.556832 -0.619609 -3.174096
v -0.118584 -0.783468 -2.796525
v -1.411778 -0.783468 -3.132458
v -4.319868 -0.783468 -4.660948
v -7.559042 -0.275390 -6.437031
v -7.830824 -0.014235 -6.675897
v -7.559042 0.246921 -6.437031
v -3.891405 0.535808 3.335321
v -1.394127 0.705802 3.367277
v 1.394127 0.705802 3.367277
v 3.104261 0.402231 3.317526
v 5.416557 0.250306 5.586534
v 5.686330 -0.010850 5.841472
v 5.416557 -0.272006 5.586534
v 2.504205 -0.619609 3.338204
v 1.390543 -0.783468 3.343208
v -1.390542 -0.783468 3.343208
v -1.860726 -0.783468 4.262265
v -7.709302 -0.261156 5.123175
v -8.070402 0.000000 5.209070
v -7.709302 0.261156 5.123175
vt 0.694493 0.500465
vt 0.687525 0.481634
vt 0.784127 0.513806
vt 0.780023 0.518405
vt 0.391520 0.419848
vt 0.387001 0.425397
vt 0.684970 0.463043
vt 0.783581 0.507822
vt 0.859797 0.566288
vt 0.871953 0.548072
vt 0.638811 0.536957
vt 0.744602 0.544206
vt 0.403938 0.416045
vt 0.339626 0.439982
vt 0.336769 0.430407
vt 0.656558 0.372810
vt 0.763475 0.445542
vt 0.875546 0.526460
vt 0.597466 0.604299
vt 0.780418 0.606466
vt 0.503182 0.347056
vt 0.339813 0.420048
vt 0.246085 0.440947
vt 0.254998 0.449844
vt 0.836085 0.432424
vt 0.657888 0.302869
vt 0.491136 0.548495
vt 0.477527 0.510232
vt 0.515810 0.324755
vt 0.406032 0.338546
vt 0.253984 0.428999
vt 0.397106 0.549380
vt 0.397750 0.504953
vt 0.404522 0.305293
vt 0.244254 0.526872
vt 0.324751 0.495116
vt 0.305662 0.362380
vt 0.216842 0.357745
vt 0.706696 0.881176
vt 0.633231 0.889335
vt 0.651763 0.808550
vt 0.751526 0.805648
vt 0.491800 0.968399
vt 0.483232 0.819222
vt 0.655357 0.801865
vt 0.757530 0.785928
vt 0.356961 0.980222
vt 0.331286 0.807612
vt 0.482975 0.806662
vt 0.650916 0.795409
vt 0.749950 0.767193
vt 0.879943 0.779376
vt 0.865044 0.799075
vt 0.304696 0.898278
vt 0.191209 0.787662
vt 0.330013 0.796636
vt 0.483312 0.794267
vt 0.622558 0.728066
vt 0.693385 0.716337
vt 0.863111 0.761401
vt 0.197723 0.774218
vt 0.333889 0.786153
vt 0.491251 0.718713
vt 0.072601 0.635895
vt 0.084992 0.613174
vt 0.207659 0.758887
vt 0.394753 0.693925
vt 0.109619 0.607281
vt 0.310255 0.696145
vt 0.396455 0.624762
vt 0.496997 0.644293
vt 0.144669 0.425999
vt 0.192737 0.292241
vt 0.058937 0.312928
vt 0.398579 0.208726
vt 0.267394 0.120733
vt 0.098802 0.100885
vt 0.549353 0.195274
vt 0.359368 0.197012
vt 0.687294 0.259905
vt 0.549833 0.179648
vt 0.874474 0.370731
vt 0.800761 0.171383
vt 0.990853 0.431132
vt 0.852027 0.267964
vt 0.958639 0.297209
vt 0.237436 0.587765
vt 0.150992 0.477597
vt 0.597222 0.642947
vt 0.767204 0.668223
vt 0.863491 0.710361
vt 0.011520 0.468433
vt 0.139316 0.451990
vt 0.022799 0.493507
vt 0.016015 0.441302
vt 0.964207 0.609795
vt 0.977570 0.591940
vt 0.980953 0.569835
vn -0.040552 -0.997652 0.055195
vn -0.023186 -0.997499 0.066766
vn -0.047418 -0.991833 0.118405
vn -0.087905 -0.988062 0.126517
vn 0.043495 -0.996943 0.064912
vn 0.083745 -0.988986 0.122038
vn 0.094648 -0.994951 0.033368
vn 0.166863 -0.980233 0.106303
vn -0.559481 -0.045902 0.827571
vn -0.310110 -0.006907 0.950676
vn -0.038202 0.995180 0.090322
vn -0.085004 0.990528 0.107837
vn 0.505488 -0.038678 0.861966
vn 0.073398 0.991734 0.105245
vn 0.763394 0.035884 0.644936
vn 0.129802 0.988471 0.077954
vn -0.018977 0.998721 0.046860
vn -0.040178 0.998580 0.034992
vn 0.034156 0.998417 0.044686
vn 0.070865 0.997310 0.018744
vn -0.069665 0.996989 0.034068
vn -0.032203 0.998958 0.032339
vn -0.042843 0.999076 0.003354
vn -0.075812 0.997121 0.001474
vn 0.063488 0.997443 0.032805
vn 0.094399 0.995406 -0.016015
vn 0.192216 0.980606 0.038283
vn 0.196409 0.979957 -0.033276
vn -0.064459 0.997775 -0.017043
vn -0.033717 0.999252 -0.018948
vn -0.021612 0.999533 -0.021607
vn -0.053878 0.998210 -0.025956
vn 0.047099 0.998630 -0.022783
vn 0.066565 0.997781 -0.001355
vn 0.129073 0.991361 -0.023334
vn 0.107692 0.994138 0.009541
vn -0.102890 0.992022 -0.072844
vn -0.033765 0.994667 -0.097456
vn -0.067738 0.986081 -0.151840
vn -0.163352 0.979025 -0.121759
vn 0.033990 0.995471 -0.088780
vn 0.078356 0.987495 -0.136799
vn 0.073582 0.996087 -0.048956
vn 0.159407 0.973466 -0.164173
vn -0.368315 0.013946 -0.929596
vn -0.788189 0.000000 -0.615433
vn 0.437425 -0.020351 -0.899024
vn 0.653377 0.019888 -0.756772
vn -0.157246 -0.979183 -0.128354
vn -0.066648 -0.986112 -0.152120
vn -0.038610 -0.994460 -0.097768
vn -0.099735 -0.991380 -0.084967
vn 0.075407 -0.988851 -0.128400
vn 0.033461 -0.996014 -0.082683
vn 0.159205 -0.974431 -0.158551
vn 0.074571 -0.996212 -0.044739
vn -0.004125 -0.999031 -0.043826
vn 0.000180 -0.999411 -0.034331
vn -0.000175 -0.999787 -0.020639
vn -0.003140 -0.999438 -0.033367
vn 0.057706 -0.998123 -0.020527
vn 0.028973 -0.999436 -0.016996
vn 0.104199 -0.994461 -0.013748
vn 0.109511 -0.993648 -0.025888
vn 0.000000 -1.000000 -0.000000
vn 0.000000 -1.000000 -0.000000
vn -0.006446 -0.999669 0.024923
vn -0.031257 -0.998355 0.048068
vn 0.061271 -0.998030 -0.013467
vn 0.041446 -0.998845 0.024314
vn 0.147499 -0.988765 -0.024237
vn 0.185423 -0.981827 0.040407
vn 0.187804 -0.981865 -0.025903
vn 0.124635 -0.991443 -0.038831
vn 0.131036 -0.990829 0.032980
vn 0.342013 -0.926035 0.159641
vn 0.160450 -0.986246 0.039681
vn 0.088863 -0.995878 0.018188
vn 0.111026 -0.993428 -0.027818
vn 0.215878 -0.975636 -0.039139
vn 0.160114 0.987071 -0.007364
vn 0.997910 -0.000000 -0.064623
vn 0.886065 -0.000000 0.463560
vn 0.369708 0.910046 0.187434
vn 0.142925 0.989056 0.036607
vn 0.972743 -0.023660 0.230674
vn 0.979742 0.011603 -0.199929
vn 0.198772 0.979297 -0.038292
vn 0.075395 0.997112 -0.009099
vn 0.103573 0.993782 0.040859
vn 0.040241 0.999138 0.010179
vn 0.055475 0.998375 -0.013053
vn -0.083728 -0.990240 -0.111420
vn -0.122530 -0.992465 -0.000066
vn -0.196538 -0.980061 -0.029208
vn -0.125941 -0.979864 -0.154936
vn -0.111152 -0.993774 0.007597
vn -0.098454 -0.995116 -0.007127
vn -0.178499 -0.983938 -0.002155
vn -0.160291 -0.987007 0.011115
vn -0.676062 0.026549 -0.736366
vn -0.966483 -0.027452 -0.255257
vn -0.204887 0.977640 -0.047344
vn -0.114146 0.987113 -0.112152
vn -0.999780 0.010948 -0.017917
vn -0.999977 -0.006764 0.001087
vn -0.157572 0.987472 0.008415
vn -0.165634 0.986187 -0.000368
vn -0.088568 0.995827 -0.021986
vn -0.069535 0.995641 -0.062165
vn -0.074259 0.997218 0.006444
vn -0.095363 0.995442 0.001009
vn -0.062383 0.997171 0.041926
vn -0.024617 0.998879 0.040428
vn 0.057310 0.997470 0.042073
vn 0.178370 0.982829 0.047244
vn 0.144224 0.987817 0.058465
vn 0.011830 0.999708 0.021078
vn 0.953903 0.028428 0.298765
vn 0.140472 -0.987829 0.066794
vn 0.055385 -0.997515 0.043550
vn 0.191593 -0.979988 0.054001
vn 0.044073 -0.998143 0.042054
vn -0.009395 -0.999074 0.041979
vn -0.033355 -0.998126 0.051294
vn -0.092984 -0.995651 0.005679
vn -0.192859 -0.980871 0.026425
vn -0.962849 0.198044 0.183574
vn -0.123756 0.991587 0.037944
vn -0.050015 0.998396 0.026514
s 1
g Splinter_03
usemtl initialShadingGroup
f 1/76/1 2/73/2 6/74/3 5/77/4
f 2/73/2 3/38/5 7/72/6 6/74/3
f 3/38/5 4/37/7 8/31/8 7/72/6
f 45/61/9 46/65/10 10/68/11 9/66/12
f 46/92/10 47/93/13 11/88/14 10/94/11
f 47/93/13 48/23/15 12/24/16 11/88/14
f 9/66/12 10/68/11 14/87/17 13/69/18
f 10/68/11 11/88/14 15/35/19 14/87/17
f 11/88/14 12/24/16 16/36/20 15/35/19
s 2
f 69/67/21 70/70/22 18/71/23 17/63/24
f 70/70/22 71/32/25 19/27/26 18/71/23
f 71/32/25 72/33/27 20/28/28 19/27/26
f 55/58/29 56/89/30 22/90/31 21/59/32
f 56/89/30 57/19/33 23/20/34 22/90/31
f 57/19/33 58/11/35 24/12/36 23/20/34
s 3
f 21/59/37 22/90/38 26/91/39 25/51/40
f 22/90/38 23/20/41 27/9/42 26/91/39
f 23/20/41 24/12/43 28/4/44 27/9/42
f 25/51/40 26/60/39 52/52/45 53/46/46
f 26/96/39 27/9/42 51/10/47 52/97/45
f 27/9/42 28/4/44 50/3/48 51/10/47
f 29/86/49 30/84/50 34/82/51 33/85/52
f 30/84/50 31/18/53 35/25/54 34/82/51
f 31/18/53 32/8/55 36/17/56 35/25/54
s 4
f 33/85/57 34/82/58 64/80/59 65/83/60
f 34/82/58 35/25/61 63/26/62 64/80/59
f 35/25/61 36/17/63 62/16/64 63/26/62
f 37/81/65 38/78/66 78/75/67 79/79/68
f 38/78/66 39/29/69 77/34/70 78/75/67
f 39/29/69 40/21/71 76/30/72 77/34/70
s 5
f 61/7/73 62/16/74 36/17/75 32/8/76
f 75/22/77 76/30/78 40/21/79 41/13/80
f 59/1/81 60/2/82 50/3/83 28/4/84
f 73/14/85 74/15/86 49/5/87 42/6/88
f 58/11/89 59/1/81 28/4/84 24/12/90
f 72/33/91 73/14/85 42/6/88 20/28/92
s 9
f 33/39/93 65/40/94 66/41/95 29/42/96
f 37/43/97 79/47/98 80/48/99 43/44/100
f 53/46/101 67/45/102 68/50/103 25/51/104
f 54/49/105 81/56/106 82/62/107 44/57/108
f 25/51/104 68/50/103 55/58/109 21/59/110
f 44/57/108 82/62/107 69/67/111 17/63/112
s 1
f 5/55/4 6/64/3 46/65/10 45/61/9
f 6/95/3 7/72/6 47/93/13 46/92/10
f 7/72/6 8/31/8 48/23/15 47/93/13
s 5
f 74/15/86 75/22/77 41/13/80 49/5/87
f 60/2/82 61/7/73 32/8/76 50/3/83
s 3
f 51/10/47 50/3/48 32/8/55 31/18/53
f 52/97/45 51/10/47 31/18/53 30/98/50
f 53/46/46 52/52/45 30/53/50 29/42/49
s 9
f 29/42/96 66/41/95 67/45/102 53/46/101
f 43/44/100 80/48/99 81/56/106 54/49/105
s 2
f 17/63/24 18/71/23 56/89/30 55/58/29
f 18/71/23 19/27/26 57/19/33 56/89/30
f 19/27/26 20/28/28 58/11/35 57/19/33
s 5
f 42/6/88 59/1/81 58/11/89 20/28/92
f 49/5/87 60/2/82 59/1/81 42/6/88
f 41/13/80 61/7/73 60/2/82 49/5/87
f 40/21/79 62/16/74 61/7/73 41/13/80
s 4
f 63/26/62 62/16/64 40/21/71 39/29/69
f 64/80/59 63/26/62 39/29/69 38/78/66
f 65/83/60 64/80/59 38/78/66 37/81/65
s 9
f 66/41/95 65/40/94 37/43/97 43/44/100
f 67/45/102 66/41/95 43/44/100 54/49/105
f 68/50/103 67/45/102 54/49/105 44/57/108
f 55/58/109 68/50/103 44/57/108 17/63/112
s 2
f 13/69/113 14/87/114 70/70/22 69/67/21
f 14/87/114 15/35/115 71/32/25 70/70/22
f 15/35/115 16/36/116 72/33/27 71/32/25
s 5
f 12/24/117 73/14/85 72/33/91 16/36/118
f 48/23/119 74/15/86 73/14/85 12/24/117
f 8/31/120 75/22/77 74/15/86 48/23/119
f 4/37/121 76/30/78 75/22/77 8/31/120
s 4
f 77/34/70 76/30/72 4/37/122 3/38/123
f 78/75/67 77/34/70 3/38/123 2/73/124
f 79/79/68 78/75/67 2/73/124 1/76/125
s 9
f 80/48/99 79/47/98 1/54/126 5/55/127
f 81/56/106 80/48/99 5/55/127 45/61/128
f 82/62/107 81/56/106 45/61/128 9/66/129
f 69/67/111 82/62/107 9/66/129 13/69/130
